<svg width="719" height="597" viewBox="0 0 719 597" fill="none" xmlns="http://www.w3.org/2000/svg">
<g opacity="0.9" filter="url(#filter0_f_523_580)">
<path d="M249.05 255.245C283.283 188.946 237.711 105.771 207.899 68.696C206.849 75.4423 202.429 84.4768 192.769 98.7628C184.085 88.6093 173.3 76.3535 161.251 63.1122C137.481 92.4102 142.37 96.5203 126.03 25.5465C82.171 -19.7821 33.0815 -64.8466 6.49471 -72.6288C-25.8023 -82.0826 40.8472 -72.3438 100.726 -50.0485C139.011 -35.7934 174.529 -16.4053 179.646 6.38147C182.06 17.1302 185.236 25.268 188.589 31.7197C219.167 -13.0211 219.883 -101.023 218.613 -128.14C214.423 -129.803 209.793 -131.59 204.689 -133.505C160.874 -149.945 151.22 -140.751 152.889 -122.384C154.869 -115.741 156.332 -109.155 157.15 -102.719C163.929 -79.4032 175.102 -51.8383 165.336 -38.2862C143.152 -7.50117 107.378 -158.563 -12.826 -189.348C-37.4679 -195.659 -55.9017 -199.629 -69.5025 -201.898L-99.4012 -194.359C-107.738 -200.749 -108.977 -208.485 -69.5025 -201.898L79.4767 -239.462C99.7469 -218.368 139.01 -168.945 152.889 -122.384C151.22 -140.751 160.874 -149.945 204.689 -133.505C209.793 -131.59 214.423 -129.803 218.613 -128.14C218.596 -128.511 218.578 -128.872 218.56 -129.221C217.997 -130.604 217.687 -132.035 217.687 -133.505C217.687 -138.613 218.188 -136.403 218.56 -129.221C218.739 -128.782 218.943 -128.347 219.17 -127.918C229.82 -107.848 292.166 -98.8619 219.17 -127.918C218.986 -127.992 218.8 -128.066 218.613 -128.14C219.883 -101.023 219.167 -13.0211 188.589 31.7197C198.305 50.4126 209.513 54.9511 208.017 67.8304C227.831 80.9164 311.391 89.05 249.05 -38.2862C230.189 -76.811 295.038 -27.7432 325.871 6.38147C329.27 -40.5831 296.959 -45.6849 266.222 -60.4812C289.356 -82.9138 342.35 -114.319 369.253 -60.4812C387.062 -24.8414 456.444 1.96387 503.325 15.5744C508.849 14.9881 515.384 15.5722 523.085 17.5553C568.86 29.343 544.969 27.6642 503.325 15.5744C439.054 22.3966 511.838 187.695 480.871 151.435C453.968 119.935 415.761 138.31 400.02 151.435C505.913 210.142 439.372 339.009 400.02 283.167C360.667 227.324 204.689 341.157 249.05 255.245Z" fill="black" fill-opacity="0.08"/>
<path d="M79.4767 17.5553C86.6351 43.8065 116.691 104.041 179.646 134.969C258.341 173.629 209.697 187.232 165.336 176.493C120.976 165.754 95.9332 193.676 101.657 224.461C107.381 255.245 100.942 185.083 28.6764 151.435C-15.7371 130.755 -12.9593 128.567 6.49471 98.7628C0.896782 77.2881 2.70394 6.38147 -18.1282 6.38147C-38.9604 6.38147 -13.8425 -15.4983 1.32045 -26.4382C4.79474 -5.11972 17.5385 38.5365 40.719 42.6136C44.285 33.8381 45.6866 25.3907 42.9863 17.5553C31.5383 -15.663 62.5433 3.71432 79.4767 17.5553Z" fill="black" fill-opacity="0.08"/>
<path d="M10.0221 281.976C21.5287 342.063 61.0329 431.683 157.15 452.844C296.987 483.629 118.11 444.252 118.11 517.277C118.11 590.302 56.5795 453.559 6.49471 531.596C-43.5901 609.633 42.9851 488.64 6.49471 452.844C-29.9957 417.047 -2.09126 286.03 -27.1337 255.245C-34.0603 246.73 -34.5151 242.877 -31.3371 241.903C-43.831 224.997 -49.8903 207.759 -46.4521 190.813C-34.8503 133.628 -37.0384 69.9079 -41.5747 27.1523C-43.6037 14.4538 -45.234 2.6794 -46.4521 -7.50114C-44.8467 1.06624 -43.0812 12.9531 -41.5747 27.1523C-30.0962 98.9921 -5.85932 200.409 28.6764 210.143C68.526 221.374 102.653 319.834 155.922 361.761C173.627 369.159 190.263 375.494 204.689 380.534C186.644 380.534 170.56 373.282 155.922 361.761C107.52 341.536 51.1246 313.367 10.0221 281.976Z" fill="black" fill-opacity="0.08"/>
<path d="M574.915 98.7628C605.825 -32.9686 327.138 -105.822 257.496 -194.359C349.794 -175.029 565.94 -72.6288 592.682 37.9856C666.628 343.852 655.767 84.4433 677.947 191.117C700.128 297.79 536.279 263.427 574.915 98.7628Z" fill="black" fill-opacity="0.08"/>
</g>
<defs>
<filter id="filter0_f_523_580" x="-143.025" y="-278.36" width="861.944" height="874.583" filterUnits="userSpaceOnUse" color-interpolation-filters="sRGB">
<feFlood flood-opacity="0" result="BackgroundImageFix"/>
<feBlend mode="normal" in="SourceGraphic" in2="BackgroundImageFix" result="shape"/>
<feGaussianBlur stdDeviation="19.4487" result="effect1_foregroundBlur_523_580"/>
</filter>
</defs>
</svg>
