<svg width="72" height="20" viewBox="0 0 72 20" fill="none" xmlns="http://www.w3.org/2000/svg">
<g clip-path="url(#clip0_523_1618)">
<path d="M25.7343 7.52453V5.20004C25.7343 2.10983 23.9322 0.277588 20.8826 0.277588C17.8607 0.277588 16.114 2.05514 16.114 5.20004V5.61024C16.114 8.37228 16.9735 9.79432 19.136 10.6421L20.3558 11.0796C22.4629 11.9274 23.0174 12.6111 23.0174 14.0878V15.2364C23.0174 16.7131 22.2411 17.5882 20.9103 17.5882C19.6073 17.5882 18.831 16.7131 18.831 15.2364V12.7204H16.0586V15.0449C16.0586 18.1625 17.8052 19.9674 20.8826 19.9674C23.96 19.9674 25.7898 18.1351 25.7898 15.0449V14.5253C25.7898 11.7086 24.958 10.3686 22.7124 9.52085L21.6034 9.11065C19.4132 8.23555 18.8865 7.55187 18.8865 6.07514V5.00861C18.8865 3.53187 19.635 2.65677 20.9103 2.65677C22.1856 2.65677 22.9619 3.53187 22.9619 5.00861V7.52453H25.7343ZM35.6994 0.551057H26.5504V2.93024H29.7387V19.6939H32.5111V2.93024H35.6994V0.551057ZM36.8259 0.551057V19.6939H41.4559C44.2837 19.6939 46.3908 18.3266 46.3908 14.9629V5.28208C46.3908 1.94575 44.2837 0.551057 41.4559 0.551057H36.8259ZM39.5983 2.93024H41.4281C42.5926 2.93024 43.5906 3.47718 43.5906 5.25473V14.9902C43.5906 16.7678 42.5926 17.3147 41.4281 17.3147H39.5983V2.93024ZM50.6169 0.52371H47.8445V19.6939H50.6169V11.3258H51.0605L54.5815 19.6939H57.548L53.3339 10.1225L57.1044 0.52371H54.1379L51.0605 8.91922H50.6169V0.52371ZM58.5118 0.551057V19.6939H61.2842V0.551057H58.5118ZM71.4104 0.551057H62.2615V2.93024H65.4498V19.6939H68.2222V2.93024H71.4104V0.551057Z" fill="white"/>
<path d="M5.39927 19.2814L5.24414 19.6939H5.69025H7.29312H7.50901L7.58409 19.4942L14.5675 0.922833L14.7225 0.510254H14.2765H12.6736H12.4577L12.3826 0.709919L5.39927 19.2814Z" fill="white" stroke="white" stroke-width="0.793103"/>
<path d="M0.639515 19.2814L0.484375 19.6939H0.930489H2.53336H2.74924L2.82433 19.4942L9.80767 0.922833L9.96281 0.510254H9.5167H7.91384H7.69794L7.62286 0.709919L0.639515 19.2814Z" fill="white" stroke="white" stroke-width="0.793103"/>
</g>
<defs>
<clipPath id="clip0_523_1618">
<rect width="72" height="20" fill="white"/>
</clipPath>
</defs>
</svg>
