<svg width="300" height="122" viewBox="0 0 300 122" fill="none" xmlns="http://www.w3.org/2000/svg">
<path d="M140.602 56.8855L141.073 57.0525L140.602 56.8855ZM297.422 0.232059C297.274 -0.00113753 296.965 -0.0702892 296.732 0.0776002L292.932 2.48767C292.699 2.63557 292.63 2.9445 292.777 3.17771C292.925 3.41091 293.234 3.48006 293.467 3.33217L296.845 1.18987L298.988 4.56784C299.136 4.80103 299.445 4.87019 299.678 4.72229C299.911 4.57441 299.98 4.26547 299.832 4.03227L297.422 0.232059ZM0.995748 114.424L0.845637 114.901C58.2464 132.968 120.83 114.217 141.073 57.0525L140.602 56.8855L140.131 56.7186C120.126 113.208 58.2215 131.912 1.14586 113.947L0.995748 114.424ZM140.602 56.8855L141.073 57.0525C143.554 50.049 147.491 45.379 152.511 42.3599C157.543 39.3337 163.701 37.9437 170.651 37.5752C184.582 36.8367 201.482 40.1999 218.537 42.477C235.536 44.7467 252.666 45.9303 266.852 40.7118C281.097 35.4717 292.294 23.8104 297.488 0.609066L297 0.499848L296.512 0.390629C291.379 23.3211 280.379 34.6705 266.507 39.7733C252.577 44.8976 235.672 43.756 218.669 41.4858C201.722 39.223 184.652 35.8315 170.598 36.5766C163.557 36.9499 157.219 38.3614 151.995 41.5029C146.76 44.6514 142.682 49.5153 140.131 56.7186L140.602 56.8855Z" fill="#13656B"/>
</svg>
