<svg width="58" height="72" viewBox="0 0 58 72" fill="none" xmlns="http://www.w3.org/2000/svg">
<path fill-rule="evenodd" clip-rule="evenodd" d="M28.9997 0.166748C13.1675 0.166748 0.333008 14.5093 0.333008 30.6251C0.333008 46.6145 9.48242 63.9946 23.7575 70.6668C27.0853 72.2223 30.9141 72.2223 34.2418 70.6668C48.5169 63.9946 57.6663 46.6145 57.6663 30.6251C57.6663 14.5093 44.8318 0.166748 28.9997 0.166748ZM28.9997 36.0001C32.9577 36.0001 36.1663 32.7915 36.1663 28.8334C36.1663 24.8754 32.9577 21.6667 28.9997 21.6667C25.0416 21.6667 21.833 24.8754 21.833 28.8334C21.833 32.7915 25.0416 36.0001 28.9997 36.0001Z" fill="#13656B"/>
</svg>
