<svg width="330" height="64" viewBox="0 0 330 64" fill="none" xmlns="http://www.w3.org/2000/svg">
<path d="M36.795 50.2865C36.795 44.462 33.0687 38.9565 18.8732 37.191C5.09575 35.4227 4.79875 30.8302 4.79875 28.2892C4.79875 21.4912 12.7627 19.525 18.4937 19.525C23.707 19.5316 28.7884 21.1639 33.0303 24.1945L35.398 21.0347C30.3798 17.4666 24.332 15.6383 18.1775 15.829C5.4725 15.829 0.81675 22.7425 0.638 28.1682V28.5257C0.638 32.8377 2.52725 38.9977 17.7595 41.0465C30.701 42.7735 32.6315 47.2257 32.6507 50.3855C32.6507 57.4805 25.6025 59.8455 19.5333 59.8455C13.4833 59.873 7.568 58.0745 2.56575 54.6755L0 57.838C5.3476 61.8186 11.8953 63.8514 18.557 63.5992C35.0213 63.5992 36.773 54.1805 36.8115 50.3057M111.952 4.60074C111.953 3.81434 111.72 3.04552 111.283 2.39187C110.845 1.73823 110.224 1.22923 109.497 0.929493C108.953 0.704836 108.366 0.603275 107.779 0.632093C107.191 0.660911 106.617 0.819394 106.098 1.09618C105.579 1.37296 105.127 1.76119 104.776 2.23301C104.425 2.70484 104.182 3.24858 104.065 3.82524C103.911 4.59679 103.99 5.39683 104.291 6.12355C104.593 6.85027 105.104 7.47082 105.759 7.90624C106.359 8.30431 107.055 8.53269 107.774 8.56715C108.493 8.60162 109.208 8.44089 109.843 8.10201C110.478 7.76312 111.009 7.25873 111.38 6.64231C111.752 6.02589 111.95 5.32043 111.952 4.60074ZM106.659 4.60074C106.657 4.35982 106.728 4.12393 106.861 3.92329C106.994 3.72264 107.185 3.56638 107.407 3.47451C107.63 3.38264 107.875 3.35936 108.111 3.40764C108.347 3.45591 108.563 3.57355 108.732 3.74549C108.871 3.88693 108.973 4.0603 109.029 4.25037C109.085 4.44044 109.094 4.64139 109.054 4.83556C109.014 5.02972 108.928 5.21116 108.801 5.36393C108.675 5.51669 108.513 5.63611 108.33 5.71168C108.147 5.78725 107.948 5.81666 107.751 5.79732C107.553 5.77799 107.364 5.7105 107.199 5.60079C107.034 5.49109 106.898 5.34251 106.804 5.16814C106.71 4.99377 106.66 4.79893 106.659 4.60074ZM270.174 62.0702C272.941 62.9811 275.844 63.4108 278.757 63.3407C280.937 63.4132 283.119 63.2537 285.266 62.865L284.669 59.2872C281.678 59.7477 278.641 59.8281 275.63 59.5265C270.515 58.85 265.455 56.782 265.455 45.6142V0.349243H261.195V44.3437C261.195 53.3252 263.186 59.6447 270.196 62.0702M87.604 55.9872V33.7315C87.604 27.533 84.26 15.8482 69.8445 15.8482C63.6238 15.7154 57.491 17.3334 52.1455 20.5177L53.7598 23.7765C58.6745 21.0679 64.1943 19.6461 69.806 19.6432C82.6265 19.6432 83.743 30.9897 83.743 34.8232V36.1157C79.1099 34.7167 74.2875 34.0469 69.4485 34.1302C67.1963 34.1302 48.961 34.8645 49.258 49.7887C49.4395 59.565 57.8792 63.6982 68.0955 63.6982C75.339 63.6982 84.997 61.1132 87.6233 56.1467M67.7132 59.9417C58.2395 59.9417 53.6608 55.0935 53.6608 49.5715C53.6608 38.2222 67.3365 38.0462 70.0232 38.0462C74.6267 38.1397 79.1973 38.8272 83.622 40.0922V54.736C80.7757 58.0745 74.4453 59.8042 68.552 59.8042L67.716 59.9417H67.7132ZM125.832 17.0995L140.146 62.546H146.118L159.497 21.989L171.823 62.546H177.796L193.518 17.0995H189.019L174.903 57.9755L162.223 17.0995H156.805L143.352 58.7125L130.268 17.105H125.829L125.832 17.0995ZM330 55.99V33.7342C330 27.5357 326.656 15.851 312.241 15.851C306.02 15.7168 299.887 17.3349 294.542 20.5205L296.194 23.7985C301.108 21.089 306.629 19.668 312.241 19.668C325.064 19.668 326.177 31.0145 326.177 34.848V36.1212C321.544 34.7222 316.722 34.0514 311.883 34.133C309.634 34.133 291.396 34.8672 291.695 49.7915C291.874 59.5677 300.336 63.701 310.549 63.701C317.796 63.701 327.451 61.116 330.061 56.1495M310.15 59.9445C300.652 59.9445 296.095 55.0962 296.095 49.5742C296.095 38.225 309.771 38.049 312.439 38.049C317.069 38.1342 321.667 38.8245 326.117 40.095V54.7387C323.251 58.0772 316.94 59.807 311.025 59.807L310.15 59.9445ZM242.896 55.99V33.7342C242.896 27.5357 239.552 15.851 225.137 15.851C218.916 15.7181 212.784 17.3361 207.438 20.5205L209.069 23.7985C213.984 21.0896 219.505 19.6686 225.118 19.668C237.938 19.668 239.052 31.0145 239.052 34.848V36.1212C234.419 34.7213 229.597 34.0505 224.758 34.133C222.508 34.133 204.27 34.8672 204.572 49.7915C204.749 59.5677 213.21 63.701 223.424 63.701C230.67 63.701 240.328 61.116 242.954 56.1495M222.986 59.8262C213.51 59.8262 208.931 54.978 208.931 49.4532C208.931 38.1067 222.607 37.9307 225.294 37.9307C229.969 38.049 234.611 38.7832 239.093 40.1142V54.758C236.225 58.0965 229.914 59.8262 224.023 59.8262H222.986ZM105.798 17.0995V62.546H109.78V17.0995H105.798Z" fill="#424853"/>
</svg>
