<svg width="20" height="20" viewBox="0 0 20 20" fill="none" xmlns="http://www.w3.org/2000/svg">
<path d="M10 0C15.5228 0 20 4.47715 20 10C20 15.5228 15.5228 20 10 20C4.47715 20 0 15.5228 0 10C0 4.47715 4.47715 0 10 0ZM11.2129 6.50586H5V13.75H6.76465V11.3936H10.0176L11.5615 13.75H13.5381L11.8359 11.3818C12.4633 11.2862 12.7452 11.0886 12.9775 10.7627C13.2098 10.4368 13.3261 9.91596 13.3262 9.2207V8.67676C13.3261 8.26473 13.284 7.93911 13.21 7.68945C13.1359 7.43965 13.0089 7.22152 12.8291 7.02637C12.6393 6.84184 12.4275 6.7121 12.1738 6.625C11.9201 6.54897 11.6032 6.50491 11.2129 6.50488V6.50586ZM10.9268 8.10254C11.1698 8.10254 11.339 8.14657 11.4238 8.22266C11.5087 8.29877 11.5615 8.44027 11.5615 8.64648V9.25391C11.5615 9.47114 11.5086 9.61235 11.4238 9.68848C11.339 9.76459 11.1699 9.79785 10.9268 9.79785V9.79688H6.76465V8.10254H10.9268ZM14.8936 3.75C14.1448 3.75024 13.5381 4.36728 13.5381 5.12793C13.5383 5.8884 14.145 6.50464 14.8936 6.50488C15.6424 6.50488 16.2498 5.88855 16.25 5.12793C16.25 4.36713 15.6425 3.75 14.8936 3.75Z" fill="white"/>
</svg>
