<svg width="97" height="22" viewBox="0 0 97 22" fill="none" xmlns="http://www.w3.org/2000/svg">
<path fill-rule="evenodd" clip-rule="evenodd" d="M85.5259 7.87768C85.5182 7.53236 85.3751 7.2036 85.1272 6.96103C84.8793 6.71847 84.5459 6.58114 84.1976 6.57812H82.9955C82.752 6.57891 82.5134 6.6464 82.306 6.77315C82.0987 6.89991 81.9307 7.081 81.8205 7.29646L78.3134 12.8762V7.87768C78.3118 7.5335 78.1732 7.20386 77.9279 6.96049C77.6825 6.71711 77.3501 6.57969 77.0031 6.57812H75.801C75.454 6.57969 75.1216 6.71711 74.8762 6.96049C74.6309 7.20386 74.4923 7.5335 74.4907 7.87768V16.8196C74.4915 17.1643 74.6297 17.4947 74.8752 17.7387C75.1207 17.9827 75.4535 18.1205 75.801 18.1221H77.1413C77.3553 18.1225 77.5662 18.0708 77.7553 17.9716C77.9445 17.8723 78.1062 17.7285 78.2262 17.5528L81.6762 12.5185L81.6913 16.8136C81.6893 16.9837 81.7213 17.1525 81.7855 17.3102C81.8496 17.468 81.9447 17.6116 82.0651 17.7327C82.1855 17.8538 82.329 17.95 82.4871 18.0158C82.6453 18.0817 82.815 18.1157 82.9865 18.1161H84.3479C84.5203 18.1169 84.6911 18.0836 84.8503 18.0181C85.0096 17.9526 85.154 17.8562 85.2752 17.7346C85.3964 17.6131 85.4919 17.4687 85.5561 17.31C85.6203 17.1514 85.652 16.9816 85.6492 16.8106L85.5259 7.87768Z" fill="#474530"/>
<path fill-rule="evenodd" clip-rule="evenodd" d="M37.0125 2.65283H26.8878C26.5411 2.65441 26.2091 2.79192 25.9641 3.03538C25.7192 3.27884 25.5814 3.60848 25.5806 3.95239V4.82571C25.5829 5.16914 25.7213 5.49788 25.9659 5.741C26.2104 5.98413 26.5416 6.12214 26.8878 6.12526H29.8931V16.8108C29.8947 17.1558 30.0335 17.4862 30.2795 17.7301C30.5254 17.974 30.8585 18.1118 31.2064 18.1133H32.709C33.0565 18.1118 33.3893 17.9739 33.6348 17.7299C33.8803 17.4859 34.0185 17.1555 34.0193 16.8108V6.12526H37.0245C37.3713 6.12292 37.7032 5.98525 37.9484 5.74204C38.1936 5.49884 38.3324 5.16965 38.3348 4.82571V3.95239C38.3332 3.60821 38.1947 3.27857 37.9493 3.03519C37.7039 2.79182 37.3715 2.6544 37.0245 2.65283" fill="#474530"/>
<path fill-rule="evenodd" clip-rule="evenodd" d="M47.504 14.0479V11.3504C47.504 8.41155 46.1877 6.44434 42.356 6.44434C39.459 6.44434 37.7911 7.55313 37.7911 8.87653C37.7911 9.87206 38.299 10.3341 38.8369 10.5546C39.48 10.0896 40.2824 9.76475 41.6859 9.76475C43.0022 9.76475 43.9698 10.1463 44.0029 11.106H42.1577C42.0795 11.106 40.3545 11.106 39.2456 11.5531C39.1104 11.6157 38.9751 11.6843 38.8519 11.7558C38.8176 11.7795 38.7814 11.8004 38.7437 11.8184C38.2386 12.1146 37.822 12.5387 37.5368 13.0474C37.2516 13.556 37.1081 14.1307 37.1209 14.7126C37.1209 17.0107 38.882 18.2267 40.9736 18.2267C42.8459 18.2267 43.7805 17.1865 44.072 16.5248L44.1171 16.5487C44.4176 17.5859 45.0187 18.1999 46.2208 18.1999C47.7594 18.1999 48.3244 17.1865 48.4266 16.5039C47.9337 16.3042 47.525 15.6098 47.525 14.0509M42.362 13.0822H44.0269V13.6962C44.027 13.9333 43.9794 14.1681 43.8871 14.3868C43.7948 14.6056 43.6596 14.8039 43.4893 14.9704C43.319 15.1368 43.117 15.2679 42.8951 15.3562C42.6732 15.4445 42.4358 15.4881 42.1968 15.4846C41.3312 15.4846 40.6941 14.9808 40.6941 14.2744C40.6941 13.4339 41.4905 13.0822 42.362 13.0822Z" fill="#474530"/>
<path fill-rule="evenodd" clip-rule="evenodd" d="M95.1278 14.0922C94.8577 14.3803 94.5294 14.6088 94.1644 14.7628C93.7994 14.9169 93.4058 14.993 93.0091 14.9864H92.934C92.392 14.9925 91.8633 14.8195 91.4314 14.4946C91.1669 14.2863 90.9575 14.0172 90.8213 13.7107C90.6214 13.3031 90.5185 12.8554 90.5208 12.4022C90.5198 11.9435 90.6279 11.4911 90.8364 11.0817C91.0066 10.7258 91.2729 10.4235 91.6057 10.2084C91.6176 10.1988 91.6307 10.1907 91.6448 10.1846C91.6571 10.1756 91.6702 10.1676 91.6838 10.1607C91.9581 10.0076 92.2587 9.90647 92.5704 9.86267C92.5943 9.86554 92.6186 9.86554 92.6425 9.86267H92.7086C92.7577 9.85968 92.8068 9.85968 92.8559 9.86267H92.94C93.3187 9.85632 93.6934 9.94049 94.0323 10.1081C94.3713 10.2756 94.6646 10.5217 94.8874 10.8254C96.1226 10.8254 96.8919 10.0922 96.8919 9.16818C96.8919 7.79709 95.5786 6.38428 92.7267 6.38428C89.7214 6.38428 86.7793 8.21736 86.7793 12.4379C86.7793 16.6585 89.8296 18.3396 92.8409 18.3396C95.2661 18.3396 97.0061 17.2099 97.0061 15.7762C97.0061 14.882 96.1947 14.1756 95.1338 14.119" fill="#474530"/>
<path fill-rule="evenodd" clip-rule="evenodd" d="M58.629 8.01479L58.6019 7.99691C58.5807 7.98102 58.5575 7.96799 58.5328 7.95816C57.7649 7.50589 56.8864 7.27181 55.9934 7.28156C54.7867 7.25556 53.6176 7.6984 52.7357 8.51554C53.0362 6.61986 53.9648 5.85086 56.5193 5.65115C59.4854 5.43059 60.4441 4.67947 60.4441 3.24281C60.4441 2.20257 59.5425 1.64817 58.5929 1.60645C58.2383 2.04758 57.7424 2.42314 55.6087 2.64966C50.9987 3.13253 48.8379 6.11613 48.8379 11.2935C48.8379 15.5319 50.8183 18.2503 54.653 18.2503C57.7695 18.2503 60.4892 16.4827 60.4892 12.6825C60.4892 10.4053 59.9392 8.84639 58.629 8.02075M56.6064 13.207C56.6064 13.2547 56.5914 13.3054 56.5854 13.3531C56.547 13.8368 56.3261 14.2884 55.9668 14.6178C55.6075 14.9471 55.1363 15.13 54.647 15.13C54.1578 15.13 53.6865 14.9471 53.3272 14.6178C52.968 14.2884 52.7471 13.8368 52.7086 13.3531C52.7086 13.3143 52.7086 13.2696 52.6876 13.2279C52.5769 12.2384 52.5428 11.242 52.5854 10.2473C53.2198 9.9142 53.9332 9.75764 54.65 9.79422C55.1402 9.81319 55.607 10.0069 55.9648 10.3398C56.3225 10.6727 56.5471 11.1225 56.5974 11.6064C56.6363 11.866 56.6564 12.128 56.6575 12.3904V12.5275C56.658 12.7618 56.642 12.9958 56.6094 13.2279" fill="#474530"/>
<path fill-rule="evenodd" clip-rule="evenodd" d="M68.5977 6.471C67.9772 6.45773 67.3649 6.61322 66.8271 6.9206C66.2894 7.22798 65.8468 7.67551 65.5473 8.21466V7.88382C65.5458 7.53885 65.4069 7.20845 65.1609 6.96452C64.915 6.72058 64.5819 6.58285 64.2341 6.58128H63.032C62.6844 6.58285 62.3516 6.72069 62.1061 6.9647C61.8607 7.20872 61.7225 7.53912 61.7217 7.88382V20.7005C61.7225 21.0452 61.8607 21.3756 62.1061 21.6196C62.3516 21.8636 62.6844 22.0015 63.032 22.003H64.2341C64.5819 22.0015 64.915 21.8637 65.1609 21.6198C65.4069 21.3759 65.5458 21.0455 65.5473 20.7005V16.8615C66.0793 17.6126 67.3505 18.1878 68.5736 18.1878C71.1852 18.1878 73.3009 16.5932 73.3009 12.3935C73.3009 8.12823 71.2513 6.471 68.5977 6.471ZM69.3339 13.3115C69.1777 14.31 68.3993 15.079 67.4587 15.079H67.2633C66.939 15.0743 66.6241 14.9702 66.3618 14.781C66.0677 14.5726 65.8427 14.282 65.7156 13.9464C65.5661 13.3533 65.5034 12.742 65.5293 12.1312C65.5293 11.9255 65.5564 11.7229 65.5834 11.5351C65.7216 10.5038 66.506 9.71988 67.4557 9.71988C68.4053 9.71988 69.1957 10.5038 69.3339 11.5351C69.3747 11.8204 69.3947 12.1083 69.394 12.3965C69.3936 12.6957 69.3715 12.9946 69.3279 13.2907" fill="#474530"/>
<path fill-rule="evenodd" clip-rule="evenodd" d="M3.30559 2.7392C5.89324 2.74086 8.38429 3.71421 10.2777 5.4635C12.1764 3.71102 14.6743 2.73752 17.2679 2.7392C15.3711 0.976362 12.8682 -0.00318403 10.2687 7.77578e-06C10.1185 7.77578e-06 9.9682 7.77578e-06 9.82095 7.77578e-06H9.76986C7.34368 0.117713 5.03914 1.08883 3.26953 2.7392H3.30559Z" fill="white"/>
<path fill-rule="evenodd" clip-rule="evenodd" d="M13.5656 12.9059C14.1429 12.3717 14.7813 11.9066 15.4679 11.5199C17.0112 10.6451 18.7571 10.183 20.5347 10.1786C20.538 8.78024 20.2495 7.39631 19.6873 6.1139C19.1251 4.83149 18.3014 3.67836 17.268 2.72705C14.6727 2.72861 12.1746 3.70645 10.2778 5.46327C11.3132 6.41421 12.1396 7.56681 12.7053 8.84897C13.271 10.1311 13.5638 11.5153 13.5656 12.9148" fill="#94C22B"/>
<path fill-rule="evenodd" clip-rule="evenodd" d="M5.09087 11.5202C5.7772 11.9069 6.41478 12.3732 6.99018 12.9092C6.99208 11.5096 7.28504 10.1256 7.85073 8.84342C8.41643 7.56128 9.2427 6.40866 10.2779 5.4576C8.37897 3.70628 5.88078 2.73478 3.28773 2.73927H3.2697C2.23853 3.68997 1.416 4.84125 0.853437 6.12127C0.290872 7.40129 0.000349431 8.78257 0 10.1789C1.78598 10.177 3.54127 10.6395 5.09087 11.5202Z" fill="#94C22B"/>
<path fill-rule="evenodd" clip-rule="evenodd" d="M13.5657 12.9062C12.5554 13.8332 11.7438 14.9525 11.1795 16.1975C10.6151 17.4425 10.3095 18.7874 10.281 20.1522C10.281 20.2118 10.281 20.2684 10.281 20.331C10.2775 18.9354 9.98341 17.5555 9.41714 16.2779C8.85088 15.0003 8.02465 13.8524 6.99024 12.9062V12.9361C6.98952 14.6683 7.4365 16.3718 8.2885 17.8839C8.8106 18.8123 9.47462 19.6549 10.2569 20.3817H10.278H10.299C11.0815 19.6551 11.7456 18.8125 12.2674 17.8839C13.1184 16.3714 13.5653 14.6681 13.5657 12.9361V12.9062Z" fill="#474530"/>
<path fill-rule="evenodd" clip-rule="evenodd" d="M0 10.1787C0 10.1787 0 10.1787 0 10.1936C0.000679126 12.8002 1.00811 15.3075 2.8152 17.2002C4.62229 19.0928 7.09174 20.227 9.71593 20.3695H9.74598H10.0465H10.2629C9.47943 19.6468 8.81341 18.8083 8.28844 17.8836C7.43769 16.371 6.9908 14.6679 6.99018 12.9358V12.906C6.41344 12.3712 5.77489 11.9059 5.08786 11.52C3.53963 10.6387 1.78513 10.1761 0 10.1787Z" fill="#6B8C26"/>
<path fill-rule="evenodd" clip-rule="evenodd" d="M10.278 5.46353C9.24218 6.41414 8.41552 7.56667 7.84978 8.84891C7.28404 10.1311 6.99141 11.5155 6.99023 12.9151C8.02282 13.8611 8.8475 15.0082 9.41269 16.2847C9.97788 17.5612 10.2714 18.9397 10.275 20.3339C10.275 20.2743 10.275 20.2176 10.275 20.158C10.3031 18.7918 10.6091 17.4453 11.1746 16.1992C11.74 14.9531 12.5533 13.833 13.5657 12.9062C13.564 11.5066 13.2711 10.1225 12.7054 8.84029C12.1397 7.55813 11.3133 6.40553 10.278 5.45459" fill="#6B8C26"/>
<path fill-rule="evenodd" clip-rule="evenodd" d="M20.5377 10.1787C18.7591 10.1824 17.012 10.6446 15.4678 11.52C14.7813 11.9067 14.1428 12.3718 13.5655 12.906V12.9358C13.5662 14.668 13.1193 16.3715 12.2673 17.8836C11.7464 18.8129 11.0822 19.6556 10.2988 20.3814H10.5723H10.7947C13.4252 20.244 15.9023 19.1106 17.7151 17.215C19.5279 15.3195 20.5382 12.8062 20.5377 10.1936V10.1787Z" fill="#6B8C26"/>
</svg>
