<svg width="91" height="90" viewBox="0 0 91 90" fill="none" xmlns="http://www.w3.org/2000/svg">
<path d="M19.25 57.0604C16.822 50.8583 15.5 44.255 15.5 38.0374C15.5 21.172 28.9315 7.5 45.5 7.5C62.0685 7.5 75.5 21.172 75.5 38.0374C75.5 54.7705 65.925 74.2965 50.986 81.2792C47.5035 82.9069 43.4965 82.9069 40.014 81.2792C35.2428 79.0491 31.0187 75.5395 27.4789 71.25" stroke="#8D725D" stroke-width="4" stroke-linecap="round"/>
<path d="M41.9107 43.2057L40.7006 44.7981L40.7006 44.7981L41.9107 43.2057ZM45.5 28.9352L44.0917 30.3553C44.8714 31.1285 46.1286 31.1285 46.9083 30.3553L45.5 28.9352ZM50.2994 44.7981C51.1788 44.1298 51.35 42.8751 50.6817 41.9956C50.0133 41.1162 48.7586 40.945 47.8792 41.6133L50.2994 44.7981ZM45.5 45L45.5 43H45.5L45.5 45ZM53.3184 36.3359C52.6755 37.2341 52.8825 38.4834 53.7806 39.1263C54.6788 39.7692 55.9281 39.5623 56.571 38.6641L53.3184 36.3359ZM41.9107 43.2057L43.1208 41.6133C41.5312 40.4053 39.748 38.8737 38.3808 37.2365C36.9672 35.5435 36.25 34.0358 36.25 32.84H34.25H32.25C32.25 35.4677 33.7169 37.8917 35.3105 39.8002C36.9506 41.7644 38.9977 43.504 40.7006 44.7981L41.9107 43.2057ZM34.25 32.84H36.25C36.25 30.242 37.4352 28.8923 38.6592 28.4479C39.9224 27.9892 41.9509 28.2322 44.0917 30.3553L45.5 28.9352L46.9083 27.5151C43.9868 24.6179 40.3903 23.5639 37.2941 24.688C34.1586 25.8264 32.25 28.9393 32.25 32.84H34.25ZM56.75 32.84H58.75C58.75 28.9393 56.8413 25.8264 53.7059 24.688C50.6097 23.5639 47.0132 24.6179 44.0917 27.5151L45.5 28.9352L46.9083 30.3553C49.0491 28.2322 51.0776 27.9892 52.3408 28.4479C53.5648 28.8923 54.75 30.242 54.75 32.84H56.75ZM41.9107 43.2057L40.7006 44.7981C42.1298 45.8842 43.4719 47 45.5 47L45.5 45L45.5 43C45.0717 43 44.8398 42.9196 43.1208 41.6133L41.9107 43.2057ZM49.0893 43.2057L47.8792 41.6133C46.1602 42.9196 45.9283 43 45.5 43L45.5 45L45.5 47C47.5281 47 48.8702 45.8842 50.2994 44.7981L49.0893 43.2057ZM54.9447 37.5L56.571 38.6641C57.761 37.0015 58.75 34.9972 58.75 32.84H56.75H54.75C54.75 33.7966 54.2904 34.9779 53.3184 36.3359L54.9447 37.5Z" fill="#8D725D"/>
</svg>
